<?xml version="1.0" encoding="UTF-8"?>
<svg version="1.1" xmlns="http://www.w3.org/2000/svg" width="64" height="64">
<path d="M0 0 C1.0523584 0.00132935 1.0523584 0.00132935 2.12597656 0.00268555 C9.98262444 0.18058895 16.07783914 2.52345914 22.25 7.375 C21.97894465 11.98294092 19.96586523 14.15484246 16.91796875 17.3359375 C15.25 18.375 15.25 18.375 13.25390625 18.13671875 C11.4638517 17.45628866 9.72591143 16.64226511 8 15.8125 C3.3107 13.79280149 -1.06611965 13.46570721 -5.89453125 15.1015625 C-11.2191941 17.53174258 -14.20056426 20.50854389 -17 25.6875 C-18.78849476 32.09627289 -18.13727914 36.89916422 -14.953125 42.6171875 C-12.17033999 46.68294482 -8.44070092 49.06596719 -3.75 50.375 C2.5844291 50.9980586 6.97420861 50.01307344 12.25 46.375 C14.36890939 44.09309758 15.86673269 42.14153461 17.25 39.375 C11.97 39.375 6.69 39.375 1.25 39.375 C1.15234375 30.09765625 1.15234375 30.09765625 1.25 27.375 C3.10714057 25.51785943 6.17507049 26.24451319 8.65625 26.2421875 C9.95691406 26.24089844 11.25757813 26.23960938 12.59765625 26.23828125 C13.61883545 26.24142334 13.61883545 26.24142334 14.66064453 26.24462891 C16.74128515 26.2499776 18.82170989 26.2446832 20.90234375 26.23828125 C22.85333984 26.24021484 22.85333984 26.24021484 24.84375 26.2421875 C26.04708984 26.24331543 27.25042969 26.24444336 28.49023438 26.24560547 C31.25 26.375 31.25 26.375 32.25 27.375 C33.18705069 37.55966571 31.91011409 46.04350259 25.5 54.1875 C19.83032622 60.2580598 12.77743223 63.97151899 4.48046875 64.7109375 C-3.32059594 64.88412439 -9.98016419 64.64477196 -16.75 60.375 C-17.68199219 59.8490625 -17.68199219 59.8490625 -18.6328125 59.3125 C-25.49240619 55.03638965 -29.69165022 48.0820631 -31.75 40.375 C-32.54203912 31.48758433 -32.64931144 23.14298722 -27.75 15.375 C-27.399375 14.75367188 -27.04875 14.13234375 -26.6875 13.4921875 C-20.83134388 4.09793705 -10.74802398 -0.02443902 0 0 Z " fill="#157DE5" transform="translate(31.75,-0.375)"/>
<path d="M0 0 C1.0523584 0.00132935 1.0523584 0.00132935 2.12597656 0.00268555 C9.98262444 0.18058895 16.07783914 2.52345914 22.25 7.375 C21.97894465 11.98294092 19.96586523 14.15484246 16.91796875 17.3359375 C15.25 18.375 15.25 18.375 13.25390625 18.13671875 C11.4638517 17.45628866 9.72591143 16.64226511 8 15.8125 C3.3107 13.79280149 -1.06611965 13.46570721 -5.89453125 15.1015625 C-11.2191941 17.53174258 -14.20056426 20.50854389 -17 25.6875 C-18.55506373 31.2598117 -17.86915481 36.77922593 -16.75 42.375 C-18.37170379 43.38033667 -19.99747237 44.37911907 -21.625 45.375 C-22.52992187 45.931875 -23.43484375 46.48875 -24.3671875 47.0625 C-26.75 48.375 -26.75 48.375 -28.75 48.375 C-32.78916555 40.2966689 -33.29971279 30.32389748 -31.0234375 21.5859375 C-30.08652598 19.36934196 -29.03264167 17.40866213 -27.75 15.375 C-27.399375 14.75367188 -27.04875 14.13234375 -26.6875 13.4921875 C-20.83134388 4.09793705 -10.74802398 -0.02443902 0 0 Z " fill="#FF4B26" transform="translate(31.75,-0.375)"/>
<path d="M0 0 C0.66 0.7425 1.32 1.485 2 2.25 C6.21898045 6.42144264 11.10947925 9.20247072 17.125 9.375 C20.73852208 9.02530431 23.64102953 8.34358819 27 7 C28.00806851 8.59910868 29.00620385 10.20448262 30 11.8125 C30.556875 12.70582031 31.11375 13.59914063 31.6875 14.51953125 C33 17 33 17 33 20 C24.9216689 24.03916555 14.94889748 24.54971279 6.2109375 22.2734375 C3.99317922 21.33603452 2.03341294 20.28558752 0 19 C-0.64453125 18.62617187 -1.2890625 18.25234375 -1.953125 17.8671875 C-6.5229677 14.96783352 -8.63053778 11.83370294 -11 7 C-7.37 4.69 -3.74 2.38 0 0 Z " fill="#12B346" transform="translate(15,41)"/>
<path d="M0 0 C4.30764815 1.56641751 8.06171464 3.68336156 12 6 C11.835 6.825 11.67 7.65 11.5 8.5 C10.64218501 14.50470492 10.80746338 20.03731689 12 26 C10.37829621 27.00533667 8.75252763 28.00411907 7.125 29 C6.22007813 29.556875 5.31515625 30.11375 4.3828125 30.6875 C2 32 2 32 0 32 C-4.03648506 23.92702988 -4.43625712 13.9431329 -2.3203125 5.1875 C-1.5 3 -1.5 3 0 0 Z " fill="#FED400" transform="translate(3,16)"/>
<path d="M0 0 C8.40517231 -0.62260536 15.39488586 1.71287882 22 7 C21.72894465 11.60794092 19.71586523 13.77984246 16.66796875 16.9609375 C15 18 15 18 13.16015625 17.79296875 C12.09087891 17.40044922 12.09087891 17.40044922 11 17 C9.61554687 16.51853516 9.61554687 16.51853516 8.203125 16.02734375 C4.1015625 14.51367188 4.1015625 14.51367188 0 13 C0 8.71 0 4.42 0 0 Z " fill="#DB3F21" transform="translate(32,0)"/>
<path d="M0 0 C7 8.44827586 7 8.44827586 7 13 C1.28264895 15.45029331 -2.79029227 16.33266291 -9 16 C-9 11.71 -9 7.42 -9 3 C-6.03 2.01 -3.06 1.02 0 0 Z " fill="#0F9A3F" transform="translate(41,48)"/>
</svg>
